<?xml version="1.0" encoding="UTF-8"?>
<svg width="572px" height="116px" viewBox="0 0 572 116" version="1.1" xmlns="http://www.w3.org/2000/svg" xmlns:xlink="http://www.w3.org/1999/xlink">
    <title>编组备份 7@1.5x</title>
    <g id="页面-1" stroke="none" stroke-width="1" fill="none" fill-rule="evenodd">
        <g id="画板" transform="translate(-353.000000, -256.000000)" fill="#1FC9D4">
            <g id="编组备份-7" transform="translate(353.000000, 256.000000)">
                <path d="M43.121376,75.472128 C45.761376,76.228608 48.514656,76.716288 51.349536,76.910208 L51.349536,76.910208 L51.349536,115.406208 L43.121376,115.406208 Z M65.063232,75.471648 L65.063232,115.405728 L56.835072,115.405728 L56.835072,76.909728 C59.669952,76.716768 62.423232,76.228128 65.063232,75.471648 L65.063232,75.471648 Z M77.40672,69.455712 L77.40672,87.154272 C77.40672,93.817632 81.13056,99.773472 87.1248,102.696672 L87.1248,102.696672 L83.51712,110.093472 C79.28352,108.028512 75.70464,104.833632 73.16736,100.855392 C70.55712,96.763872 69.17856,92.026272 69.17856,87.154272 L69.17856,87.154272 L69.17856,74.041632 L69.17856,74.041632 L69.8509476,73.75855 C72.5354641,72.5984225 75.0663877,71.1518105 77.40672,69.455712 L77.40672,69.455712 Z M31.052928,69.455712 C33.587328,71.293152 36.347328,72.837792 39.283008,74.042592 L39.281088,74.041632 L39.281088,87.154272 C39.281088,92.026272 37.901568,96.763872 35.292288,100.855392 C32.754048,104.833632 29.176128,108.028512 24.942528,110.093472 L24.942528,110.093472 L21.334848,102.696672 C27.329088,99.773472 31.052928,93.817632 31.052928,87.154272 L31.052928,87.154272 Z M90.022664,54.301208 L90.023424,87.154272 C90.023424,89.725152 92.116224,91.816992 94.687104,91.816992 C97.257984,91.816992 99.349824,89.725152 99.349824,87.154272 L99.349824,87.154272 L107.577984,87.154272 C107.577984,94.262112 101.794944,100.046112 94.687104,100.046112 C87.578304,100.046112 81.795264,94.262112 81.795264,87.154272 L81.795264,87.154272 L81.795264,65.766432 C85.176384,62.483232 87.975744,58.604832 90.024384,54.299232 L90.022664,54.301208 Z M18.434664,54.850208 C20.483904,59.153952 23.283264,62.757792 26.663424,66.040992 L26.663424,87.154272 C26.663424,94.262112 20.881344,100.046112 13.772544,100.046112 C6.663744,100.046112 0.881664,94.262112 0.881664,87.154272 L9.109824,87.154272 C9.109824,89.725152 11.201664,91.816992 13.772544,91.816992 C16.343424,91.816992 18.435264,89.725152 18.435264,87.154272 L18.434664,54.850208 Z M82.010784,12.910368 C87.683424,19.416288 91.121184,27.923808 91.121184,37.233888 C91.121184,56.779488 75.978144,72.785568 56.784864,74.165088 L56.784864,74.165088 L56.784864,65.907168 C63.752544,65.258208 70.007904,62.115168 74.647584,57.383328 L74.647584,57.383328 L74.660064,57.393888 C79.804704,52.146528 82.709664,45.260448 82.884384,37.935648 C82.890144,37.703328 82.893024,37.469088 82.893024,37.233888 C82.893024,36.828768 82.881504,36.424608 82.866144,36.022368 L82.866144,36.022368 L82.860384,35.872608 C82.841184,35.490528 82.815264,35.110368 82.782624,34.733088 C82.776864,34.668768 82.772064,34.604448 82.765344,34.540128 C82.730784,34.165728 82.688544,33.793248 82.639584,33.423648 C82.631904,33.365088 82.624224,33.306528 82.615584,33.247968 C82.562784,32.868768 82.504224,32.490528 82.436064,32.116128 L82.436064,32.116128 L82.417824,32.020128 C82.345824,31.626528 82.267104,31.235808 82.178784,30.847968 L82.178784,30.847968 C82.088544,30.453408 81.990624,30.070368 81.887904,29.689248 C81.877344,29.652768 81.868704,29.615328 81.858144,29.578848 C81.756384,29.210208 81.646944,28.845408 81.531744,28.482528 C81.517344,28.440288 81.504864,28.398048 81.490464,28.355808 C81.372384,27.991008 81.246624,27.630048 81.114144,27.271968 C81.104544,27.243168 81.093024,27.213408 81.081504,27.184608 C80.655264,26.042208 80.157984,24.934368 79.595424,23.865888 C79.589664,23.853408 79.583904,23.841888 79.577184,23.830368 C79.390944,23.478048 79.197984,23.130528 78.998304,22.787808 C78.990624,22.773408 78.981984,22.759008 78.972384,22.744608 C78.149664,21.335328 77.208864,20.001888 76.166304,18.757728 L76.166304,18.757728 L76.164384,18.755808 Z M26.041632,13.062816 L31.889952,18.910176 C29.698272,21.561696 27.976992,24.612576 26.840352,27.933216 L26.840352,27.933216 L26.764512,28.154016 C26.700192,28.348896 26.636832,28.543776 26.575392,28.739616 C26.497632,28.989216 26.424672,29.239776 26.353632,29.492256 C26.312352,29.641056 26.272032,29.789856 26.233632,29.939616 C26.156832,30.231456 26.081952,30.523296 26.014752,30.818016 C25.993632,30.914016 25.973472,31.009056 25.953312,31.104096 C25.888032,31.398816 25.828512,31.696416 25.772832,31.994016 C25.760352,32.059296 25.747872,32.124576 25.736352,32.189856 C25.672992,32.546016 25.617312,32.905056 25.567392,33.265056 C25.558752,33.335136 25.548192,33.403296 25.538592,33.473376 C25.490592,33.838176 25.450272,34.204896 25.415712,34.573536 C25.409952,34.634976 25.405152,34.695456 25.399392,34.756896 C25.367712,35.138016 25.340832,35.520096 25.323552,35.905056 L25.323552,35.905056 L25.318752,36.014496 C25.312032,36.196896 25.304352,36.380256 25.300512,36.564576 C25.295712,36.767136 25.294752,36.969696 25.293792,37.171296 C25.293792,37.192416 25.292832,37.213536 25.292832,37.234656 L25.292832,37.268256 C25.292832,37.361376 25.295712,37.455456 25.296672,37.548576 C25.297632,37.692576 25.298592,37.836576 25.302432,37.979616 C25.305312,38.093856 25.311072,38.207136 25.314912,38.320416 C25.318752,38.440416 25.322592,38.560416 25.328352,38.679456 C25.336032,38.819616 25.345632,38.959776 25.354272,39.098976 C25.359072,39.189216 25.364832,39.278496 25.371552,39.366816 C25.384032,39.536736 25.398432,39.704736 25.413792,39.872736 C25.418592,39.929376 25.423392,39.985056 25.429152,40.040736 C25.447392,40.241376 25.470432,40.442016 25.493472,40.641696 C25.495392,40.660896 25.497312,40.680096 25.500192,40.699296 C26.249952,46.980576 29.033952,52.812576 33.525792,57.394656 L33.525792,57.394656 L33.537312,57.383136 C38.154912,62.092896 44.370912,65.228256 51.298272,65.898336 L51.298272,65.898336 L51.298272,74.158176 C32.153952,72.729696 17.063712,56.744736 17.063712,37.234656 C17.063712,27.996576 20.446752,19.549536 26.041632,13.062816 L26.041632,13.062816 Z M53.801376,16.664544 C64.896096,16.509984 74.224416,25.339104 74.648736,36.427104 C74.779296,39.842784 74.080416,43.157664 72.647136,46.138464 C71.235936,49.073184 71.410656,52.450464 72.961056,55.187424 C68.210976,60.176544 61.508256,63.290784 54.093216,63.290784 C46.674336,63.290784 39.970656,60.175584 35.220576,55.183584 C36.770976,52.424544 36.905376,49.020384 35.495136,46.048224 C34.202976,43.327584 33.521376,40.330464 33.521376,37.234464 C33.521376,25.988064 42.591456,16.821024 53.801376,16.664544 Z M54.093024,0.206208 C63.258144,0.206208 71.643744,3.537408 78.109344,9.052608 L78.109344,9.052608 L72.259104,14.903808 C71.949024,14.651328 71.639904,14.410368 71.325984,14.175168 C71.315424,14.168448 71.306784,14.160768 71.297184,14.153088 C70.348704,13.444608 69.354144,12.792768 68.320224,12.202368 L68.320224,12.202368 L68.277984,12.178368 C67.945824,11.989248 67.607904,11.806848 67.267104,11.630208 C67.242144,11.617728 67.218144,11.605248 67.194144,11.592768 C66.850464,11.416128 66.503904,11.246208 66.152544,11.083968 C66.145824,11.080128 66.139104,11.077248 66.131424,11.074368 C65.421984,10.747008 64.697184,10.447488 63.957984,10.176768 C63.923424,10.164288 63.889824,10.151808 63.856224,10.139328 C63.507744,10.013568 63.155424,9.894528 62.800224,9.781248 L62.800224,9.781248 L62.663904,9.738048 C62.307744,9.627648 61.948704,9.522048 61.587744,9.424128 C61.556064,9.415488 61.524384,9.408768 61.493664,9.400128 C61.121184,9.301248 60.747744,9.208128 60.370464,9.123648 C60.363744,9.122688 60.357984,9.120768 60.351264,9.119808 C59.982624,9.037248 59.608224,8.964288 59.232864,8.896128 C59.181024,8.886528 59.128224,8.875968 59.074464,8.867328 C58.715424,8.803968 58.353504,8.748288 57.989664,8.698368 C57.925344,8.690688 57.861984,8.682048 57.796704,8.673408 C57.430944,8.626368 57.064224,8.585088 56.693664,8.551488 C56.644704,8.547648 56.595744,8.543808 56.547744,8.539968 C56.171424,8.508288 55.793184,8.482368 55.413984,8.465088 L55.413984,8.465088 L55.364064,8.462208 C55.113504,8.451648 54.863904,8.443008 54.611424,8.439168 C54.477024,8.436288 54.344544,8.437248 54.211104,8.436288 L54.211104,8.436288 L54.093024,8.434368 C54.068064,8.434368 54.043104,8.435328 54.019104,8.435328 C53.650464,8.437248 53.283744,8.445888 52.917984,8.460288 C52.830624,8.464128 52.744224,8.467968 52.656864,8.471808 C52.311264,8.490048 51.967584,8.511168 51.625824,8.540928 C51.510624,8.551488 51.396384,8.563008 51.283104,8.574528 C51.034464,8.598528 50.786784,8.626368 50.540064,8.657088 C50.308704,8.685888 50.080224,8.717568 49.851744,8.751168 C49.698144,8.775168 49.543584,8.798208 49.389984,8.824128 C44.272224,9.668928 39.603744,11.860608 35.768544,15.031488 L35.768544,15.031488 L29.921184,9.184128 C36.406944,3.589248 44.854944,0.206208 54.093024,0.206208 Z" id="形状结合"></path>
                <path d="M174.0144,40.024128 L174.0144,62.191488 C174.0144,65.029248 174.71904,67.187328 176.13024,68.662848 C177.54144,70.139328 179.62464,70.877568 182.38272,70.877568 C185.23584,70.877568 187.32,70.119168 188.63328,68.602368 C189.9456,67.085568 190.6032,64.891008 190.6032,62.020608 L190.6032,40.024128 L196.6704,40.024128 L196.6704,63.096768 C196.6704,65.804928 196.09632,68.121408 194.94528,70.045248 C193.79616,71.970048 192.14784,73.438848 190.0032,74.449728 C187.85856,75.460608 185.31744,75.966528 182.38272,75.966528 C179.44608,75.966528 176.89344,75.460608 174.72384,74.449728 C172.55424,73.438848 170.88192,71.970048 169.70784,70.045248 C168.53376,68.121408 167.94528,65.821248 167.94528,63.145728 L167.94528,40.024128 L174.0144,40.024128 Z M453.5544,40.024128 L453.5544,62.191488 C453.5544,65.029248 454.25904,67.187328 455.67024,68.662848 C457.08144,70.139328 459.16464,70.877568 461.92272,70.877568 C464.77584,70.877568 466.86,70.119168 468.17328,68.602368 C469.4856,67.085568 470.1432,64.891008 470.1432,62.020608 L470.1432,40.024128 L476.2104,40.024128 L476.2104,63.096768 C476.2104,65.804928 475.63632,68.121408 474.48528,70.045248 C473.33616,71.970048 471.68784,73.438848 469.5432,74.449728 C467.39856,75.460608 464.85744,75.966528 461.92272,75.966528 C458.98608,75.966528 456.43344,75.460608 454.26384,74.449728 C452.09424,73.438848 450.42192,71.970048 449.24784,70.045248 C448.07376,68.121408 447.48528,65.821248 447.48528,63.145728 L447.48528,40.024128 L453.5544,40.024128 Z M519.910656,40.024128 L519.910656,62.191488 C519.910656,65.029248 520.615296,67.187328 522.026496,68.662848 C523.437696,70.139328 525.520896,70.877568 528.278976,70.877568 C531.132096,70.877568 533.216256,70.119168 534.529536,68.602368 C535.841856,67.085568 536.499456,64.891008 536.499456,62.020608 L536.499456,40.024128 L542.566656,40.024128 L542.566656,63.096768 C542.566656,65.804928 541.992576,68.121408 540.841536,70.045248 C539.692416,71.970048 538.044096,73.438848 535.899456,74.449728 C533.754816,75.460608 531.213696,75.966528 528.278976,75.966528 C525.342336,75.966528 522.789696,75.460608 520.620096,74.449728 C518.450496,73.438848 516.778176,71.970048 515.604096,70.045248 C514.430016,68.121408 513.841536,65.821248 513.841536,63.145728 L513.841536,40.024128 L519.910656,40.024128 Z M363.441984,39.534912 C367.013184,39.534912 370.088064,40.273152 372.665664,41.748672 C375.243264,43.225152 377.208384,45.300672 378.562944,47.976192 C379.916544,50.651712 380.593344,53.750592 380.593344,57.273792 C380.593344,61.074432 379.854144,64.377792 378.378624,67.182912 C376.902144,69.988992 374.797824,72.149952 372.065664,73.666752 C369.333504,75.183552 366.124224,75.941952 362.438784,75.941952 C358.881984,75.941952 355.808064,75.199872 353.213184,73.715712 C350.620224,72.231552 348.638784,70.147392 347.267904,67.464192 C345.897984,64.780992 345.212544,61.661952 345.212544,58.105152 C345.212544,54.370752 345.943104,51.103872 347.403264,48.306432 C348.862464,45.508992 350.966784,43.348032 353.715264,41.822592 C356.463744,40.297152 359.705664,39.534912 363.441984,39.534912 Z M402.4656,39.535008 C404.40672,39.535008 406.25856,39.758688 408.02016,40.207968 C409.78176,40.656288 411.38016,41.271648 412.81632,42.055008 L411.2256,46.679328 C408.30528,45.162528 405.48384,44.404128 402.75936,44.404128 C400.34496,44.404128 398.2944,44.950368 396.60576,46.042848 C394.91808,47.136288 393.63648,48.693408 392.7648,50.716128 C391.89216,52.738848 391.45632,55.120608 391.45632,57.860448 C391.45632,60.470688 391.87104,62.763168 392.70432,64.735968 C393.53568,66.709728 394.82784,68.259168 396.58176,69.385248 C398.33472,70.510368 400.54848,71.072928 403.22496,71.072928 C406.01376,71.072928 408.90816,70.388448 411.91008,69.017568 L413.30496,73.568928 C411.80448,74.319648 410.1936,74.902368 408.47232,75.318048 C406.75104,75.733728 404.80608,75.942048 402.63744,75.942048 C398.96736,75.942048 395.82336,75.245088 393.20544,73.850208 C390.58656,72.455328 388.5888,70.428768 387.21024,67.770528 C385.83168,65.111328 385.14336,61.922208 385.14336,58.203168 C385.14336,54.386208 385.86144,51.071328 387.29664,48.257568 C388.73184,45.443808 390.7536,43.286688 393.36384,41.786208 C395.97408,40.285728 399.00768,39.535008 402.4656,39.535008 Z M560.941728,39.5352 C562.670688,39.5352 564.419808,39.73488 566.190048,40.13424 C567.959328,40.5336 569.399328,41.03568 570.508128,41.63952 L569.334048,46.5816 C566.365728,45.16176 563.583648,44.45232 560.990688,44.45232 C559.260768,44.45232 557.870688,44.7912 556.818528,45.468 C555.767328,46.1448 555.241248,47.19312 555.241248,48.612 C555.241248,49.54224 555.505248,50.34192 556.036128,51.01008 C556.566048,51.6792 557.340768,52.29456 558.360288,52.85712 C559.378848,53.41968 560.917728,54.15792 562.973088,55.07184 C564.930528,55.9368 566.528928,56.80464 567.768288,57.67728 C569.007648,58.54992 569.970528,59.60208 570.655008,60.83376 C571.340448,62.06544 571.683168,63.56976 571.683168,65.34768 C571.683168,67.58256 571.188768,69.49488 570.202848,71.0856 C569.215008,72.67632 567.800928,73.88304 565.957728,74.70672 C564.114528,75.5304 561.928608,75.94224 559.399968,75.94224 C557.507808,75.94224 555.599328,75.72144 553.674528,75.28176 C551.749728,74.84112 550.029408,74.24592 548.512608,73.4952 L550.420128,68.67504 C551.791008,69.36048 553.307808,69.92304 554.972448,70.36368 C556.635168,70.80432 558.151968,71.02416 559.522848,71.02416 C561.511968,71.02416 563.029728,70.572 564.073248,69.66576 C565.117728,68.76144 565.639968,67.58256 565.639968,66.13104 C565.639968,65.03856 565.325088,64.10832 564.697248,63.34128 C564.069408,62.5752 563.265888,61.92624 562.287648,61.39632 C561.308448,60.8664 559.905888,60.20208 558.079008,59.4024 C556.186848,58.5864 554.608608,57.75024 553.344288,56.89392 C552.079968,56.03856 551.069088,54.99408 550.310688,53.7624 C549.552288,52.53072 549.173088,51.0504 549.173088,49.32144 C549.173088,47.31504 549.661728,45.57456 550.640928,44.09808 C551.619168,42.6216 552.997728,41.49168 554.775648,40.70928 C556.553568,39.92592 558.608928,39.5352 560.941728,39.5352 Z M220.234272,39.999456 L234.448992,75.453216 L227.891232,75.453216 L224.344032,65.959776 L210.153312,65.959776 L206.679072,75.453216 L200.439072,75.453216 L214.336992,39.999456 L220.234272,39.999456 Z M494.390784,40.02336 C498.875904,40.02336 502.309824,40.93824 504.690624,42.76416 C507.072384,44.59104 508.263744,47.23392 508.263744,50.69184 C508.263744,53.04096 507.729024,55.09248 506.660544,56.84544 C505.592064,58.59936 504.104064,59.94432 502.195584,60.88224 C500.288064,61.82112 498.092544,62.2896 495.613824,62.2896 C494.259264,62.2896 492.710784,62.1264 490.965504,61.8 L490.965504,75.45312 L484.848384,75.45312 L484.848384,40.02336 L494.390784,40.02336 Z M136.065024,40.02384 L136.065024,54.58224 L153.216384,54.58224 L153.216384,40.02384 L159.309504,40.02384 L159.309504,75.45264 L153.216384,75.45264 L153.216384,59.52432 L136.065024,59.52432 L136.065024,75.45264 L129.947904,75.45264 L129.947904,40.02384 L136.065024,40.02384 Z M240.517152,40.02384 L246.339552,61.72656 C246.958752,63.99408 247.432992,66.14736 247.758432,68.18544 C248.411232,65.34768 248.997792,63.06384 249.520032,61.33488 L255.662112,40.02384 L262.023072,40.02384 L268.481952,61.57968 C269.297952,64.20624 269.836512,66.40848 270.097632,68.18544 C270.472992,66.35952 270.986592,64.28016 271.638432,61.9464 L277.339872,40.02384 L283.480992,40.02384 L273.156192,75.45264 L266.843232,75.45264 L260.775072,55.07184 C260.301792,53.50512 259.911072,52.09488 259.600992,50.8392 C259.290912,49.58256 259.004832,48.26928 258.744672,46.89936 C258.418272,48.43248 258.104352,49.79472 257.801952,50.98512 C257.500512,52.17648 257.137632,53.48976 256.714272,54.92496 L250.744032,75.45264 L244.504992,75.45264 L234.057312,40.02384 L240.517152,40.02384 Z M309.563328,40.02384 L308.976768,45.06384 L294.810048,45.06384 L294.810048,54.82704 L308.169408,54.82704 L308.169408,59.54928 L294.810048,59.54928 L294.810048,70.36368 L309.735168,70.36368 L309.221568,75.45264 L288.692928,75.45264 L288.692928,40.02384 L309.563328,40.02384 Z M322.75104,40.02336 L322.75104,75.45216 L316.63392,75.45216 L316.63392,40.02336 L322.75104,40.02336 Z M442.764672,40.023936 L442.202112,45.137856 L431.753472,45.137856 L431.753472,75.452736 L425.637312,75.452736 L425.637312,45.137856 L414.652032,45.137856 L415.189632,40.023936 L442.764672,40.023936 Z M363.098304,44.379072 C360.618624,44.379072 358.515264,44.978112 356.786304,46.177152 C355.056384,47.376192 353.760384,48.983232 352.895424,50.997312 C352.031424,53.012352 351.599424,55.234752 351.599424,57.665472 C351.599424,60.225792 352.007424,62.518272 352.822464,64.540032 C353.638464,66.562752 354.886464,68.161152 356.566464,69.336192 C358.246464,70.510272 360.325824,71.097792 362.805504,71.097792 C365.267904,71.097792 367.355904,70.522752 369.068544,69.372672 C370.781184,68.222592 372.061824,66.640512 372.910464,64.626432 C373.758144,62.611392 374.182464,60.307392 374.182464,57.713472 C374.182464,55.169472 373.807104,52.901952 373.056384,50.911872 C372.306624,48.921792 371.107584,47.335872 369.460224,46.153152 C367.811904,44.970432 365.692224,44.379072 363.098304,44.379072 Z M217.198752,46.336416 C216.742752,47.837856 216.244512,49.370976 215.706912,50.936736 L211.938912,61.139616 L222.533472,61.139616 L218.741472,50.985696 C218.219232,49.582176 217.704672,48.033696 217.198752,46.336416 Z M494.291904,44.67264 L490.965504,44.67264 L490.965504,57.24864 C492.497664,57.49344 493.672704,57.61632 494.488704,57.61632 C496.983744,57.61632 498.884544,57.02496 500.189184,55.84224 C501.493824,54.65952 502.146624,52.992 502.146624,50.83872 C502.146624,48.6528 501.482304,47.07936 500.152704,46.11648 C498.823104,45.15456 496.869504,44.67264 494.291904,44.67264 Z" id="形状结合"></path>
            </g>
        </g>
    </g>
</svg>